<mxfile host="app.diagrams.net" modified="2023-11-24T15:51:13.817Z" agent="Mozilla/5.0 (Windows NT 10.0; Win64; x64) AppleWebKit/537.36 (KHTML, like Gecko) Chrome/119.0.0.0 Safari/537.36" etag="fNcwA77MkyaIZO4hGqOb" version="22.1.3" type="device">
  <diagram name="Page-1" id="v8VZDScOCiLVn1Jw-yyj">
    <mxGraphModel dx="1221" dy="769" grid="1" gridSize="10" guides="1" tooltips="1" connect="1" arrows="1" fold="1" page="1" pageScale="1" pageWidth="850" pageHeight="1100" math="0" shadow="0">
      <root>
        <mxCell id="0" />
        <mxCell id="1" parent="0" />
        <mxCell id="1eiVmMrJVIWuqblFYd0Q-2" style="edgeStyle=orthogonalEdgeStyle;rounded=0;orthogonalLoop=1;jettySize=auto;html=1;entryX=0.5;entryY=0;entryDx=0;entryDy=0;" parent="1" source="1eiVmMrJVIWuqblFYd0Q-1" target="1eiVmMrJVIWuqblFYd0Q-3" edge="1">
          <mxGeometry relative="1" as="geometry">
            <mxPoint x="425" y="200" as="targetPoint" />
          </mxGeometry>
        </mxCell>
        <mxCell id="1eiVmMrJVIWuqblFYd0Q-1" value="&lt;font style=&quot;font-size: 18px;&quot;&gt;Start&lt;/font&gt;" style="strokeWidth=2;html=1;shape=mxgraph.flowchart.terminator;whiteSpace=wrap;" parent="1" vertex="1">
          <mxGeometry x="375" y="80" width="100" height="60" as="geometry" />
        </mxCell>
        <mxCell id="1eiVmMrJVIWuqblFYd0Q-4" style="edgeStyle=orthogonalEdgeStyle;rounded=0;orthogonalLoop=1;jettySize=auto;html=1;exitX=1;exitY=0.5;exitDx=0;exitDy=0;entryX=0;entryY=0.5;entryDx=0;entryDy=0;" parent="1" source="1eiVmMrJVIWuqblFYd0Q-3" target="1eiVmMrJVIWuqblFYd0Q-8" edge="1">
          <mxGeometry relative="1" as="geometry">
            <mxPoint x="540" y="235" as="targetPoint" />
          </mxGeometry>
        </mxCell>
        <mxCell id="1eiVmMrJVIWuqblFYd0Q-10" style="edgeStyle=orthogonalEdgeStyle;rounded=0;orthogonalLoop=1;jettySize=auto;html=1;entryX=0.5;entryY=0;entryDx=0;entryDy=0;" parent="1" source="1eiVmMrJVIWuqblFYd0Q-3" target="1eiVmMrJVIWuqblFYd0Q-12" edge="1">
          <mxGeometry relative="1" as="geometry">
            <mxPoint x="425.5" y="350" as="targetPoint" />
          </mxGeometry>
        </mxCell>
        <mxCell id="1eiVmMrJVIWuqblFYd0Q-3" value="&lt;font style=&quot;font-size: 16px;&quot;&gt;Is User Registered?&lt;/font&gt;" style="rhombus;whiteSpace=wrap;html=1;" parent="1" vertex="1">
          <mxGeometry x="361" y="180" width="128" height="110" as="geometry" />
        </mxCell>
        <mxCell id="1eiVmMrJVIWuqblFYd0Q-5" value="&lt;font style=&quot;font-size: 12px;&quot;&gt;No&lt;/font&gt;" style="text;html=1;strokeColor=none;fillColor=none;align=center;verticalAlign=middle;whiteSpace=wrap;rounded=0;" parent="1" vertex="1">
          <mxGeometry x="490" y="210" width="60" height="30" as="geometry" />
        </mxCell>
        <mxCell id="1eiVmMrJVIWuqblFYd0Q-48" style="edgeStyle=orthogonalEdgeStyle;rounded=0;orthogonalLoop=1;jettySize=auto;html=1;entryX=1;entryY=0.5;entryDx=0;entryDy=0;" parent="1" source="1eiVmMrJVIWuqblFYd0Q-8" target="1eiVmMrJVIWuqblFYd0Q-12" edge="1">
          <mxGeometry relative="1" as="geometry">
            <Array as="points">
              <mxPoint x="600" y="375" />
            </Array>
          </mxGeometry>
        </mxCell>
        <mxCell id="1eiVmMrJVIWuqblFYd0Q-8" value="&lt;font style=&quot;font-size: 16px;&quot;&gt;Register&lt;/font&gt;" style="rounded=0;whiteSpace=wrap;html=1;" parent="1" vertex="1">
          <mxGeometry x="560" y="215" width="90" height="40" as="geometry" />
        </mxCell>
        <mxCell id="1eiVmMrJVIWuqblFYd0Q-11" value="Yes" style="text;html=1;strokeColor=none;fillColor=none;align=center;verticalAlign=middle;whiteSpace=wrap;rounded=0;" parent="1" vertex="1">
          <mxGeometry x="380" y="300" width="60" height="30" as="geometry" />
        </mxCell>
        <mxCell id="1eiVmMrJVIWuqblFYd0Q-16" value="" style="edgeStyle=orthogonalEdgeStyle;rounded=0;orthogonalLoop=1;jettySize=auto;html=1;" parent="1" source="1eiVmMrJVIWuqblFYd0Q-12" target="1eiVmMrJVIWuqblFYd0Q-15" edge="1">
          <mxGeometry relative="1" as="geometry" />
        </mxCell>
        <mxCell id="1eiVmMrJVIWuqblFYd0Q-12" value="&lt;font style=&quot;font-size: 16px;&quot;&gt;Login to websiite&lt;/font&gt;" style="rounded=0;whiteSpace=wrap;html=1;" parent="1" vertex="1">
          <mxGeometry x="380" y="350" width="90" height="50" as="geometry" />
        </mxCell>
        <mxCell id="1eiVmMrJVIWuqblFYd0Q-18" style="edgeStyle=orthogonalEdgeStyle;rounded=0;orthogonalLoop=1;jettySize=auto;html=1;entryX=0.5;entryY=0;entryDx=0;entryDy=0;" parent="1" source="1eiVmMrJVIWuqblFYd0Q-15" target="1eiVmMrJVIWuqblFYd0Q-17" edge="1">
          <mxGeometry relative="1" as="geometry" />
        </mxCell>
        <mxCell id="1eiVmMrJVIWuqblFYd0Q-39" value="" style="edgeStyle=orthogonalEdgeStyle;rounded=0;orthogonalLoop=1;jettySize=auto;html=1;" parent="1" source="1eiVmMrJVIWuqblFYd0Q-15" target="1eiVmMrJVIWuqblFYd0Q-38" edge="1">
          <mxGeometry relative="1" as="geometry" />
        </mxCell>
        <mxCell id="1eiVmMrJVIWuqblFYd0Q-15" value="&lt;font style=&quot;font-size: 16px;&quot;&gt;Homepage with &lt;br&gt;slot visual&lt;/font&gt;" style="shape=parallelogram;html=1;strokeWidth=2;perimeter=parallelogramPerimeter;whiteSpace=wrap;rounded=1;arcSize=12;size=0.23;" parent="1" vertex="1">
          <mxGeometry x="343" y="440" width="165" height="70" as="geometry" />
        </mxCell>
        <mxCell id="1eiVmMrJVIWuqblFYd0Q-21" style="edgeStyle=orthogonalEdgeStyle;rounded=0;orthogonalLoop=1;jettySize=auto;html=1;entryX=0;entryY=0.5;entryDx=0;entryDy=0;" parent="1" source="1eiVmMrJVIWuqblFYd0Q-17" target="1eiVmMrJVIWuqblFYd0Q-20" edge="1">
          <mxGeometry relative="1" as="geometry" />
        </mxCell>
        <mxCell id="1eiVmMrJVIWuqblFYd0Q-17" value="&lt;font style=&quot;font-size: 16px;&quot;&gt;Booking page&lt;/font&gt;" style="rounded=0;whiteSpace=wrap;html=1;" parent="1" vertex="1">
          <mxGeometry x="365" y="600" width="120" height="40" as="geometry" />
        </mxCell>
        <mxCell id="1eiVmMrJVIWuqblFYd0Q-23" style="edgeStyle=orthogonalEdgeStyle;rounded=0;orthogonalLoop=1;jettySize=auto;html=1;entryX=0;entryY=0.5;entryDx=0;entryDy=0;" parent="1" source="1eiVmMrJVIWuqblFYd0Q-20" target="1eiVmMrJVIWuqblFYd0Q-22" edge="1">
          <mxGeometry relative="1" as="geometry">
            <mxPoint x="648" y="620" as="targetPoint" />
          </mxGeometry>
        </mxCell>
        <mxCell id="1eiVmMrJVIWuqblFYd0Q-20" value="&lt;font style=&quot;font-size: 16px;&quot;&gt;book/ prebook&lt;/font&gt;" style="rounded=0;whiteSpace=wrap;html=1;" parent="1" vertex="1">
          <mxGeometry x="518" y="600" width="142" height="40" as="geometry" />
        </mxCell>
        <mxCell id="1eiVmMrJVIWuqblFYd0Q-24" style="edgeStyle=orthogonalEdgeStyle;rounded=0;orthogonalLoop=1;jettySize=auto;html=1;entryX=0.898;entryY=0.605;entryDx=0;entryDy=0;entryPerimeter=0;exitX=1;exitY=0.5;exitDx=0;exitDy=0;" parent="1" source="1eiVmMrJVIWuqblFYd0Q-22" target="1eiVmMrJVIWuqblFYd0Q-25" edge="1">
          <mxGeometry relative="1" as="geometry">
            <mxPoint x="788" y="770" as="targetPoint" />
            <mxPoint x="753" y="620" as="sourcePoint" />
            <Array as="points">
              <mxPoint x="870" y="620" />
              <mxPoint x="870" y="778" />
            </Array>
          </mxGeometry>
        </mxCell>
        <mxCell id="1eiVmMrJVIWuqblFYd0Q-22" value="&lt;font style=&quot;font-size: 16px;&quot;&gt;Car / bike&lt;/font&gt;" style="rhombus;whiteSpace=wrap;html=1;" parent="1" vertex="1">
          <mxGeometry x="720" y="565" width="105" height="110" as="geometry" />
        </mxCell>
        <mxCell id="1eiVmMrJVIWuqblFYd0Q-31" style="edgeStyle=orthogonalEdgeStyle;rounded=0;orthogonalLoop=1;jettySize=auto;html=1;exitX=0;exitY=0.5;exitDx=0;exitDy=0;" parent="1" source="1eiVmMrJVIWuqblFYd0Q-25" target="1eiVmMrJVIWuqblFYd0Q-30" edge="1">
          <mxGeometry relative="1" as="geometry" />
        </mxCell>
        <mxCell id="1eiVmMrJVIWuqblFYd0Q-25" value="&lt;font style=&quot;font-size: 16px;&quot;&gt;select date,&lt;br&gt;&amp;nbsp;start time, &lt;br&gt;end time&lt;/font&gt;" style="shape=parallelogram;html=1;strokeWidth=2;perimeter=parallelogramPerimeter;whiteSpace=wrap;rounded=1;arcSize=12;size=0.23;" parent="1" vertex="1">
          <mxGeometry x="680" y="730" width="140" height="80" as="geometry" />
        </mxCell>
        <mxCell id="1eiVmMrJVIWuqblFYd0Q-28" style="edgeStyle=orthogonalEdgeStyle;rounded=0;orthogonalLoop=1;jettySize=auto;html=1;entryX=0.654;entryY=-0.037;entryDx=0;entryDy=0;entryPerimeter=0;exitX=0.5;exitY=1;exitDx=0;exitDy=0;" parent="1" source="1eiVmMrJVIWuqblFYd0Q-22" target="1eiVmMrJVIWuqblFYd0Q-25" edge="1">
          <mxGeometry relative="1" as="geometry">
            <mxPoint x="700.5" y="675" as="sourcePoint" />
          </mxGeometry>
        </mxCell>
        <mxCell id="1eiVmMrJVIWuqblFYd0Q-33" value="" style="edgeStyle=orthogonalEdgeStyle;rounded=0;orthogonalLoop=1;jettySize=auto;html=1;" parent="1" source="1eiVmMrJVIWuqblFYd0Q-30" target="1eiVmMrJVIWuqblFYd0Q-32" edge="1">
          <mxGeometry relative="1" as="geometry" />
        </mxCell>
        <mxCell id="1eiVmMrJVIWuqblFYd0Q-30" value="&lt;font style=&quot;font-size: 16px;&quot;&gt;Check availability&lt;/font&gt;" style="rounded=0;whiteSpace=wrap;html=1;" parent="1" vertex="1">
          <mxGeometry x="523" y="745" width="112" height="50" as="geometry" />
        </mxCell>
        <mxCell id="1eiVmMrJVIWuqblFYd0Q-34" style="edgeStyle=orthogonalEdgeStyle;rounded=0;orthogonalLoop=1;jettySize=auto;html=1;" parent="1" source="1eiVmMrJVIWuqblFYd0Q-32" target="1eiVmMrJVIWuqblFYd0Q-35" edge="1">
          <mxGeometry relative="1" as="geometry">
            <mxPoint x="415.5" y="840" as="targetPoint" />
          </mxGeometry>
        </mxCell>
        <mxCell id="1eiVmMrJVIWuqblFYd0Q-32" value="&lt;font style=&quot;font-size: 16px;&quot;&gt;Select Available Slot&lt;/font&gt;" style="whiteSpace=wrap;html=1;rounded=0;" parent="1" vertex="1">
          <mxGeometry x="366.5" y="740" width="98" height="60" as="geometry" />
        </mxCell>
        <mxCell id="I9L5fnioDMQ655YC9_0x-5" value="" style="edgeStyle=orthogonalEdgeStyle;rounded=0;orthogonalLoop=1;jettySize=auto;html=1;" edge="1" parent="1" source="1eiVmMrJVIWuqblFYd0Q-35" target="I9L5fnioDMQ655YC9_0x-4">
          <mxGeometry relative="1" as="geometry" />
        </mxCell>
        <mxCell id="1eiVmMrJVIWuqblFYd0Q-35" value="&lt;font style=&quot;font-size: 16px;&quot;&gt;Make&lt;br&gt;Payment&lt;/font&gt;" style="whiteSpace=wrap;html=1;rounded=0;" parent="1" vertex="1">
          <mxGeometry x="373" y="850" width="85" height="60" as="geometry" />
        </mxCell>
        <mxCell id="1eiVmMrJVIWuqblFYd0Q-47" style="edgeStyle=orthogonalEdgeStyle;rounded=0;orthogonalLoop=1;jettySize=auto;html=1;" parent="1" source="1eiVmMrJVIWuqblFYd0Q-36" target="1eiVmMrJVIWuqblFYd0Q-46" edge="1">
          <mxGeometry relative="1" as="geometry" />
        </mxCell>
        <mxCell id="I9L5fnioDMQ655YC9_0x-7" style="edgeStyle=orthogonalEdgeStyle;rounded=0;orthogonalLoop=1;jettySize=auto;html=1;entryX=0.5;entryY=0;entryDx=0;entryDy=0;" edge="1" parent="1" source="1eiVmMrJVIWuqblFYd0Q-36" target="1eiVmMrJVIWuqblFYd0Q-44">
          <mxGeometry relative="1" as="geometry">
            <Array as="points">
              <mxPoint x="900" y="880" />
              <mxPoint x="900" y="420" />
              <mxPoint x="790" y="420" />
            </Array>
          </mxGeometry>
        </mxCell>
        <mxCell id="1eiVmMrJVIWuqblFYd0Q-36" value="&lt;font style=&quot;font-size: 16px;&quot;&gt;Slot Occupied&lt;br&gt;by the Customer&lt;/font&gt;" style="whiteSpace=wrap;html=1;rounded=0;" parent="1" vertex="1">
          <mxGeometry x="720" y="850" width="142" height="60" as="geometry" />
        </mxCell>
        <mxCell id="1eiVmMrJVIWuqblFYd0Q-38" value="&lt;font style=&quot;font-size: 16px;&quot;&gt;Profile Page&lt;/font&gt;" style="whiteSpace=wrap;html=1;strokeWidth=2;rounded=1;arcSize=12;" parent="1" vertex="1">
          <mxGeometry x="550" y="452.5" width="110" height="45" as="geometry" />
        </mxCell>
        <mxCell id="I9L5fnioDMQ655YC9_0x-8" style="edgeStyle=orthogonalEdgeStyle;rounded=0;orthogonalLoop=1;jettySize=auto;html=1;entryX=0.75;entryY=0;entryDx=0;entryDy=0;" edge="1" parent="1" source="1eiVmMrJVIWuqblFYd0Q-44" target="1eiVmMrJVIWuqblFYd0Q-17">
          <mxGeometry relative="1" as="geometry">
            <Array as="points">
              <mxPoint x="790" y="540" />
              <mxPoint x="610" y="540" />
              <mxPoint x="610" y="570" />
              <mxPoint x="455" y="570" />
            </Array>
          </mxGeometry>
        </mxCell>
        <mxCell id="1eiVmMrJVIWuqblFYd0Q-44" value="&lt;font style=&quot;font-size: 16px;&quot;&gt;Customer Bookings&lt;br&gt;History&lt;/font&gt;" style="shape=parallelogram;perimeter=parallelogramPerimeter;whiteSpace=wrap;html=1;fixedSize=1;" parent="1" vertex="1">
          <mxGeometry x="700" y="440" width="180" height="60" as="geometry" />
        </mxCell>
        <mxCell id="1eiVmMrJVIWuqblFYd0Q-45" style="edgeStyle=orthogonalEdgeStyle;rounded=0;orthogonalLoop=1;jettySize=auto;html=1;entryX=0.031;entryY=0.583;entryDx=0;entryDy=0;entryPerimeter=0;" parent="1" source="1eiVmMrJVIWuqblFYd0Q-38" target="1eiVmMrJVIWuqblFYd0Q-44" edge="1">
          <mxGeometry relative="1" as="geometry" />
        </mxCell>
        <mxCell id="1eiVmMrJVIWuqblFYd0Q-46" value="&lt;font style=&quot;font-size: 16px;&quot;&gt;End&lt;/font&gt;" style="strokeWidth=2;html=1;shape=mxgraph.flowchart.terminator;whiteSpace=wrap;" parent="1" vertex="1">
          <mxGeometry x="746" y="960" width="90" height="50" as="geometry" />
        </mxCell>
        <mxCell id="I9L5fnioDMQ655YC9_0x-2" value="&lt;font style=&quot;font-size: 16px;&quot;&gt;car&lt;/font&gt;" style="text;html=1;align=center;verticalAlign=middle;resizable=0;points=[];autosize=1;strokeColor=none;fillColor=none;" vertex="1" parent="1">
          <mxGeometry x="725" y="675" width="50" height="30" as="geometry" />
        </mxCell>
        <mxCell id="I9L5fnioDMQ655YC9_0x-3" value="&lt;span style=&quot;font-size: 16px;&quot;&gt;bike&lt;/span&gt;" style="text;html=1;align=center;verticalAlign=middle;resizable=0;points=[];autosize=1;strokeColor=none;fillColor=none;" vertex="1" parent="1">
          <mxGeometry x="825" y="620" width="50" height="30" as="geometry" />
        </mxCell>
        <mxCell id="I9L5fnioDMQ655YC9_0x-6" style="edgeStyle=orthogonalEdgeStyle;rounded=0;orthogonalLoop=1;jettySize=auto;html=1;" edge="1" parent="1" source="I9L5fnioDMQ655YC9_0x-4" target="1eiVmMrJVIWuqblFYd0Q-36">
          <mxGeometry relative="1" as="geometry" />
        </mxCell>
        <mxCell id="I9L5fnioDMQ655YC9_0x-4" value="&lt;span style=&quot;font-size: 16px;&quot;&gt;Number Plate using ANPR&lt;/span&gt;" style="whiteSpace=wrap;html=1;rounded=0;" vertex="1" parent="1">
          <mxGeometry x="538" y="850" width="132" height="60" as="geometry" />
        </mxCell>
      </root>
    </mxGraphModel>
  </diagram>
</mxfile>
